<?xml version="1.0" encoding="UTF-8"?>
<svg id="Ebene_1" data-name="Ebene 1" xmlns="http://www.w3.org/2000/svg" width="100" height="80" viewBox="0 0 100 80">
  <defs>
    <style>
      .cls-1 {
        stroke: #000;
        stroke-width: 12px;
      }

      .cls-1, .cls-2 {
        fill: none;
        stroke-miterlimit: 10;
      }

      .cls-2 {
        stroke: #fff;
        stroke-width: 15px;
      }
    </style>
  </defs>
  <g>
    <path class="cls-2" d="M61,127.23c-2.5-1.86-3.98-5.08-3.77-9.22.55-13.5,22.14-43.37,22.77-58.01.73-17.1-13.3-30-30-30-16.7,0-30.73,12.9-30,30,.63,14.64,22.22,44.51,22.77,58.01.21,4.14-1.27,7.36-3.77,9.22"/>
    <path class="cls-1" d="M61,127.23c-2.5-1.86-3.98-5.08-3.77-9.22.55-13.5,22.14-43.37,22.77-58.01.73-17.1-13.3-30-30-30-16.7,0-30.73,12.9-30,30,.63,14.64,22.22,44.51,22.77,58.01.21,4.14-1.27,7.36-3.77,9.22"/>
  </g>
  <g>
    <path class="cls-2" d="M0,50h24.99c7.78,0,11.11-.61,14.01-2.77"/>
    <path class="cls-1" d="M0,50h24.99c7.78,0,11.11-.61,14.01-2.77"/>
  </g>
  <g>
    <path class="cls-2" d="M61,47.23c2.9,2.16,6.24,2.77,14.01,2.77h24.99"/>
    <path class="cls-1" d="M61,47.23c2.9,2.16,6.24,2.77,14.01,2.77h24.99"/>
  </g>
</svg>