<?xml version="1.0" encoding="UTF-8"?>
<svg id="Ebene_1" data-name="Ebene 1" xmlns="http://www.w3.org/2000/svg" viewBox="0 0 200 160">
  <g>
    <path d="M20-18.42c.63,14.64,22.22,44.51,22.77,58.01.21,4.14-1.27,7.36-3.77,9.22" fill="none" stroke="#e8e5df" stroke-miterlimit="10" stroke-width="15"/>
    <path d="M20-18.42c.63,14.64,22.22,44.51,22.77,58.01.21,4.14-1.27,7.36-3.77,9.22" fill="none" stroke="#000" stroke-miterlimit="10" stroke-width="12"/>
  </g>
  <g>
    <path d="M61,48.81c-2.5-1.86-3.98-5.08-3.77-9.22.55-13.5,22.14-43.37,22.77-58.01" fill="none" stroke="#e8e5df" stroke-miterlimit="10" stroke-width="15"/>
    <path d="M61,48.81c-2.5-1.86-3.98-5.08-3.77-9.22.55-13.5,22.14-43.37,22.77-58.01" fill="none" stroke="#000" stroke-miterlimit="10" stroke-width="12"/>
  </g>
  <g>
    <path d="M120-18.42c.63,14.64,22.22,44.51,22.77,58.01.21,4.14-1.27,7.36-3.77,9.22" fill="none" stroke="#e8e5df" stroke-miterlimit="10" stroke-width="15"/>
    <path d="M120-18.42c.63,14.64,22.22,44.51,22.77,58.01.21,4.14-1.27,7.36-3.77,9.22" fill="none" stroke="#000" stroke-miterlimit="10" stroke-width="12"/>
  </g>
  <g>
    <path d="M161,48.81c-2.5-1.86-3.98-5.08-3.77-9.22.55-13.5,22.14-43.37,22.77-58.01" fill="none" stroke="#e8e5df" stroke-miterlimit="10" stroke-width="15"/>
    <path d="M161,48.81c-2.5-1.86-3.98-5.08-3.77-9.22.55-13.5,22.14-43.37,22.77-58.01" fill="none" stroke="#000" stroke-miterlimit="10" stroke-width="12"/>
  </g>
  <g>
    <path d="M61,128.81c2.9,2.16,6.24,2.77,14.01,2.77h24.99s24.99,0,24.99,0c7.78,0,11.11-.61,14.01-2.77" fill="none" stroke="#e8e5df" stroke-miterlimit="10" stroke-width="15"/>
    <path d="M61,128.81c2.9,2.16,6.24,2.77,14.01,2.77h24.99s24.99,0,24.99,0c7.78,0,11.11-.61,14.01-2.77" fill="none" stroke="#000" stroke-miterlimit="10" stroke-width="12"/>
  </g>
  <g>
    <path d="M161,128.81c2.9,2.16,6.24,2.77,14.01,2.77h24.99" fill="none" stroke="#e8e5df" stroke-miterlimit="10" stroke-width="15"/>
    <path d="M161,128.81c2.9,2.16,6.24,2.77,14.01,2.77h24.99" fill="none" stroke="#000" stroke-miterlimit="10" stroke-width="12"/>
  </g>
  <g>
    <path d="M0,131.58h24.99c7.78,0,11.11-.61,14.01-2.77" fill="none" stroke="#e8e5df" stroke-miterlimit="10" stroke-width="15"/>
    <path d="M0,131.58h24.99c7.78,0,11.11-.61,14.01-2.77" fill="none" stroke="#000" stroke-miterlimit="10" stroke-width="12"/>
  </g>
  <g>
    <path d="M61,208.81c-2.5-1.86-3.98-5.08-3.77-9.22.55-13.5,22.14-43.37,22.77-58.01.73-17.1-13.3-30-30-30-16.7,0-30.73,12.9-30,30,.63,14.64,22.22,44.51,22.77,58.01.21,4.14-1.27,7.36-3.77,9.22" fill="none" stroke="#e8e5df" stroke-miterlimit="10" stroke-width="15"/>
    <path d="M61,208.81c-2.5-1.86-3.98-5.08-3.77-9.22.55-13.5,22.14-43.37,22.77-58.01.73-17.1-13.3-30-30-30-16.7,0-30.73,12.9-30,30,.63,14.64,22.22,44.51,22.77,58.01.21,4.14-1.27,7.36-3.77,9.22" fill="none" stroke="#000" stroke-miterlimit="10" stroke-width="12"/>
  </g>
  <g>
    <path d="M61,128.81c-2.5-1.86-3.98-5.08-3.77-9.22.55-13.5,22.14-43.37,22.77-58.01.73-17.1-13.3-30-30-30-16.7,0-30.73,12.9-30,30,.63,14.64,22.22,44.51,22.77,58.01.21,4.14-1.27,7.36-3.77,9.22" fill="none" stroke="#e8e5df" stroke-miterlimit="10" stroke-width="15"/>
    <path d="M61,128.81c-2.5-1.86-3.98-5.08-3.77-9.22.55-13.5,22.14-43.37,22.77-58.01.73-17.1-13.3-30-30-30-16.7,0-30.73,12.9-30,30,.63,14.64,22.22,44.51,22.77,58.01.21,4.14-1.27,7.36-3.77,9.22" fill="none" stroke="#000" stroke-miterlimit="10" stroke-width="12"/>
  </g>
  <g>
    <path d="M161,208.81c-2.5-1.86-3.98-5.08-3.77-9.22.55-13.5,22.14-43.37,22.77-58.01.73-17.1-13.3-30-30-30-16.7,0-30.73,12.9-30,30,.63,14.64,22.22,44.51,22.77,58.01.21,4.14-1.27,7.36-3.77,9.22" fill="none" stroke="#e8e5df" stroke-miterlimit="10" stroke-width="15"/>
    <path d="M161,208.81c-2.5-1.86-3.98-5.08-3.77-9.22.55-13.5,22.14-43.37,22.77-58.01.73-17.1-13.3-30-30-30-16.7,0-30.73,12.9-30,30,.63,14.64,22.22,44.51,22.77,58.01.21,4.14-1.27,7.36-3.77,9.22" fill="none" stroke="#000" stroke-miterlimit="10" stroke-width="12"/>
  </g>
  <g>
    <path d="M161,128.81c-2.5-1.86-3.98-5.08-3.77-9.22.55-13.5,22.14-43.37,22.77-58.01.73-17.1-13.3-30-30-30-16.7,0-30.73,12.9-30,30,.63,14.64,22.22,44.51,22.77,58.01.21,4.14-1.27,7.36-3.77,9.22" fill="none" stroke="#e8e5df" stroke-miterlimit="10" stroke-width="15"/>
    <path d="M161,128.81c-2.5-1.86-3.98-5.08-3.77-9.22.55-13.5,22.14-43.37,22.77-58.01.73-17.1-13.3-30-30-30-16.7,0-30.73,12.9-30,30,.63,14.64,22.22,44.51,22.77,58.01.21,4.14-1.27,7.36-3.77,9.22" fill="none" stroke="#000" stroke-miterlimit="10" stroke-width="12"/>
  </g>
  <g>
    <path d="M0,51.58h24.99c7.78,0,11.11-.61,14.01-2.77" fill="none" stroke="#e8e5df" stroke-miterlimit="10" stroke-width="15"/>
    <path d="M0,51.58h24.99c7.78,0,11.11-.61,14.01-2.77" fill="none" stroke="#000" stroke-miterlimit="10" stroke-width="12"/>
  </g>
  <g>
    <path d="M61,48.81c2.9,2.16,6.24,2.77,14.01,2.77h24.99s24.99,0,24.99,0c7.78,0,11.11-.61,14.01-2.77" fill="none" stroke="#e8e5df" stroke-miterlimit="10" stroke-width="15"/>
    <path d="M61,48.81c2.9,2.16,6.24,2.77,14.01,2.77h24.99s24.99,0,24.99,0c7.78,0,11.11-.61,14.01-2.77" fill="none" stroke="#000" stroke-miterlimit="10" stroke-width="12"/>
  </g>
  <g>
    <path d="M161,48.81c2.9,2.16,6.24,2.77,14.01,2.77h24.99" fill="none" stroke="#e8e5df" stroke-miterlimit="10" stroke-width="15"/>
    <path d="M161,48.81c2.9,2.16,6.24,2.77,14.01,2.77h24.99" fill="none" stroke="#000" stroke-miterlimit="10" stroke-width="12"/>
  </g>
</svg>