<?xml version="1.0" encoding="UTF-8"?>
<svg id="Ebene_1" data-name="Ebene 1" xmlns="http://www.w3.org/2000/svg" viewBox="0 0 200 160">
  <g>
    <path d="M-14.04,48.69c2.9,2.16,6.24,2.77,14.01,2.77,7.78,0,11.11-.61,14.01-2.77" fill="none" stroke="#e8e5df" stroke-miterlimit="10" stroke-width="15"/>
    <path d="M-14.04,48.69c2.9,2.16,6.24,2.77,14.01,2.77,7.78,0,11.11-.61,14.01-2.77" fill="none" stroke="#000" stroke-miterlimit="10" stroke-width="12"/>
  </g>
  <g>
    <path d="M-14.04,128.69c2.9,2.16,6.24,2.77,14.01,2.77,7.78,0,11.11-.61,14.01-2.77" fill="none" stroke="#e8e5df" stroke-miterlimit="10" stroke-width="15"/>
    <path d="M-14.04,128.69c2.9,2.16,6.24,2.77,14.01,2.77,7.78,0,11.11-.61,14.01-2.77" fill="none" stroke="#000" stroke-miterlimit="10" stroke-width="12"/>
  </g>
  <g>
    <path d="M44.99-18.54c.63,14.64,22.22,44.51,22.77,58.01.21,4.14-1.27,7.36-3.77,9.22" fill="none" stroke="#e8e5df" stroke-miterlimit="10" stroke-width="15"/>
    <path d="M44.99-18.54c.63,14.64,22.22,44.51,22.77,58.01.21,4.14-1.27,7.36-3.77,9.22" fill="none" stroke="#000" stroke-miterlimit="10" stroke-width="12"/>
  </g>
  <g>
    <path d="M85.99,48.69c-2.5-1.86-3.98-5.08-3.77-9.22.55-13.5,22.14-43.37,22.77-58.01" fill="none" stroke="#e8e5df" stroke-miterlimit="10" stroke-width="15"/>
    <path d="M85.99,48.69c-2.5-1.86-3.98-5.08-3.77-9.22.55-13.5,22.14-43.37,22.77-58.01" fill="none" stroke="#000" stroke-miterlimit="10" stroke-width="12"/>
  </g>
  <g>
    <path d="M85.99,128.69c-2.5-1.86-3.98-5.08-3.77-9.22.55-13.5,22.14-43.37,22.77-58.01.73-17.1-13.3-30-30-30-16.7,0-30.73,12.9-30,30,.63,14.64,22.22,44.51,22.77,58.01.21,4.14-1.27,7.36-3.77,9.22" fill="none" stroke="#e8e5df" stroke-miterlimit="10" stroke-width="15"/>
    <path d="M85.99,128.69c-2.5-1.86-3.98-5.08-3.77-9.22.55-13.5,22.14-43.37,22.77-58.01.73-17.1-13.3-30-30-30-16.7,0-30.73,12.9-30,30,.63,14.64,22.22,44.51,22.77,58.01.21,4.14-1.27,7.36-3.77,9.22" fill="none" stroke="#000" stroke-miterlimit="10" stroke-width="12"/>
  </g>
  <g>
    <path d="M85.99,208.69c-2.5-1.86-3.98-5.08-3.77-9.22.55-13.5,22.14-43.37,22.77-58.01.73-17.1-13.3-30-30-30-16.7,0-30.73,12.9-30,30,.63,14.64,22.22,44.51,22.77,58.01.21,4.14-1.27,7.36-3.77,9.22" fill="none" stroke="#e8e5df" stroke-miterlimit="10" stroke-width="15"/>
    <path d="M85.99,208.69c-2.5-1.86-3.98-5.08-3.77-9.22.55-13.5,22.14-43.37,22.77-58.01.73-17.1-13.3-30-30-30-16.7,0-30.73,12.9-30,30,.63,14.64,22.22,44.51,22.77,58.01.21,4.14-1.27,7.36-3.77,9.22" fill="none" stroke="#000" stroke-miterlimit="10" stroke-width="12"/>
  </g>
  <g>
    <path d="M35.99,48.69c2.9,2.16,6.24,2.77,14.01,2.77,7.78,0,11.11-.61,14.01-2.77" fill="none" stroke="#e8e5df" stroke-miterlimit="10" stroke-width="15"/>
    <path d="M35.99,48.69c2.9,2.16,6.24,2.77,14.01,2.77,7.78,0,11.11-.61,14.01-2.77" fill="none" stroke="#000" stroke-miterlimit="10" stroke-width="12"/>
  </g>
  <g>
    <path d="M35.99,128.69c2.9,2.16,6.24,2.77,14.01,2.77,7.78,0,11.11-.61,14.01-2.77" fill="none" stroke="#e8e5df" stroke-miterlimit="10" stroke-width="15"/>
    <path d="M35.99,128.69c2.9,2.16,6.24,2.77,14.01,2.77,7.78,0,11.11-.61,14.01-2.77" fill="none" stroke="#000" stroke-miterlimit="10" stroke-width="12"/>
  </g>
  <g>
    <path d="M85.99,48.69c2.9,2.16,6.24,2.77,14.01,2.77,7.78,0,11.11-.61,14.01-2.77" fill="none" stroke="#e8e5df" stroke-miterlimit="10" stroke-width="15"/>
    <path d="M85.99,48.69c2.9,2.16,6.24,2.77,14.01,2.77,7.78,0,11.11-.61,14.01-2.77" fill="none" stroke="#000" stroke-miterlimit="10" stroke-width="12"/>
  </g>
  <g>
    <path d="M85.99,128.69c2.9,2.16,6.24,2.77,14.01,2.77,7.78,0,11.11-.61,14.01-2.77" fill="none" stroke="#e8e5df" stroke-miterlimit="10" stroke-width="15"/>
    <path d="M85.99,128.69c2.9,2.16,6.24,2.77,14.01,2.77,7.78,0,11.11-.61,14.01-2.77" fill="none" stroke="#000" stroke-miterlimit="10" stroke-width="12"/>
  </g>
  <g>
    <path d="M35.99,208.69c-2.5-1.86-3.98-5.08-3.77-9.22.55-13.5,22.14-43.37,22.77-58.01.73-17.1-13.3-30-30-30-16.7,0-30.73,12.9-30,30,.63,14.64,22.22,44.51,22.77,58.01.21,4.14-1.27,7.36-3.77,9.22" fill="none" stroke="#e8e5df" stroke-miterlimit="10" stroke-width="15"/>
    <path d="M35.99,208.69c-2.5-1.86-3.98-5.08-3.77-9.22.55-13.5,22.14-43.37,22.77-58.01.73-17.1-13.3-30-30-30-16.7,0-30.73,12.9-30,30,.63,14.64,22.22,44.51,22.77,58.01.21,4.14-1.27,7.36-3.77,9.22" fill="none" stroke="#000" stroke-miterlimit="10" stroke-width="12"/>
  </g>
  <g>
    <path d="M35.99,128.69c-2.5-1.86-3.98-5.08-3.77-9.22.55-13.5,22.14-43.37,22.77-58.01.73-17.1-13.3-30-30-30-16.7,0-30.73,12.9-30,30,.63,14.64,22.22,44.51,22.77,58.01.21,4.14-1.27,7.36-3.77,9.22" fill="none" stroke="#e8e5df" stroke-miterlimit="10" stroke-width="15"/>
    <path d="M35.99,128.69c-2.5-1.86-3.98-5.08-3.77-9.22.55-13.5,22.14-43.37,22.77-58.01.73-17.1-13.3-30-30-30-16.7,0-30.73,12.9-30,30,.63,14.64,22.22,44.51,22.77,58.01.21,4.14-1.27,7.36-3.77,9.22" fill="none" stroke="#000" stroke-miterlimit="10" stroke-width="12"/>
  </g>
  <g>
    <path d="M-5.01-18.54c.63,14.64,22.22,44.51,22.77,58.01.21,4.14-1.27,7.36-3.77,9.22" fill="none" stroke="#e8e5df" stroke-miterlimit="10" stroke-width="15"/>
    <path d="M-5.01-18.54c.63,14.64,22.22,44.51,22.77,58.01.21,4.14-1.27,7.36-3.77,9.22" fill="none" stroke="#000" stroke-miterlimit="10" stroke-width="12"/>
  </g>
  <g>
    <path d="M35.99,48.69c-2.5-1.86-3.98-5.08-3.77-9.22.55-13.5,22.14-43.37,22.77-58.01" fill="none" stroke="#e8e5df" stroke-miterlimit="10" stroke-width="15"/>
    <path d="M35.99,48.69c-2.5-1.86-3.98-5.08-3.77-9.22.55-13.5,22.14-43.37,22.77-58.01" fill="none" stroke="#000" stroke-miterlimit="10" stroke-width="12"/>
  </g>
  <g>
    <path d="M145.01-18.54c.63,14.64,22.22,44.51,22.77,58.01.21,4.14-1.27,7.36-3.77,9.22" fill="none" stroke="#e8e5df" stroke-miterlimit="10" stroke-width="15"/>
    <path d="M145.01-18.54c.63,14.64,22.22,44.51,22.77,58.01.21,4.14-1.27,7.36-3.77,9.22" fill="none" stroke="#000" stroke-miterlimit="10" stroke-width="12"/>
  </g>
  <g>
    <path d="M186.01,48.69c-2.5-1.86-3.98-5.08-3.77-9.22.55-13.5,22.14-43.37,22.77-58.01" fill="none" stroke="#e8e5df" stroke-miterlimit="10" stroke-width="15"/>
    <path d="M186.01,48.69c-2.5-1.86-3.98-5.08-3.77-9.22.55-13.5,22.14-43.37,22.77-58.01" fill="none" stroke="#000" stroke-miterlimit="10" stroke-width="12"/>
  </g>
  <g>
    <path d="M186.01,128.69c-2.5-1.86-3.98-5.08-3.77-9.22.55-13.5,22.14-43.37,22.77-58.01.73-17.1-13.3-30-30-30-16.7,0-30.73,12.9-30,30,.63,14.64,22.22,44.51,22.77,58.01.21,4.14-1.27,7.36-3.77,9.22" fill="none" stroke="#e8e5df" stroke-miterlimit="10" stroke-width="15"/>
    <path d="M186.01,128.69c-2.5-1.86-3.98-5.08-3.77-9.22.55-13.5,22.14-43.37,22.77-58.01.73-17.1-13.3-30-30-30-16.7,0-30.73,12.9-30,30,.63,14.64,22.22,44.51,22.77,58.01.21,4.14-1.27,7.36-3.77,9.22" fill="none" stroke="#000" stroke-miterlimit="10" stroke-width="12"/>
  </g>
  <g>
    <path d="M186.01,208.69c-2.5-1.86-3.98-5.08-3.77-9.22.55-13.5,22.14-43.37,22.77-58.01.73-17.1-13.3-30-30-30-16.7,0-30.73,12.9-30,30,.63,14.64,22.22,44.51,22.77,58.01.21,4.14-1.27,7.36-3.77,9.22" fill="none" stroke="#e8e5df" stroke-miterlimit="10" stroke-width="15"/>
    <path d="M186.01,208.69c-2.5-1.86-3.98-5.08-3.77-9.22.55-13.5,22.14-43.37,22.77-58.01.73-17.1-13.3-30-30-30-16.7,0-30.73,12.9-30,30,.63,14.64,22.22,44.51,22.77,58.01.21,4.14-1.27,7.36-3.77,9.22" fill="none" stroke="#000" stroke-miterlimit="10" stroke-width="12"/>
  </g>
  <g>
    <path d="M136.01,48.69c2.9,2.16,6.24,2.77,14.01,2.77,7.78,0,11.11-.61,14.01-2.77" fill="none" stroke="#e8e5df" stroke-miterlimit="10" stroke-width="15"/>
    <path d="M136.01,48.69c2.9,2.16,6.24,2.77,14.01,2.77,7.78,0,11.11-.61,14.01-2.77" fill="none" stroke="#000" stroke-miterlimit="10" stroke-width="12"/>
  </g>
  <g>
    <path d="M136.01,128.69c2.9,2.16,6.24,2.77,14.01,2.77,7.78,0,11.11-.61,14.01-2.77" fill="none" stroke="#e8e5df" stroke-miterlimit="10" stroke-width="15"/>
    <path d="M136.01,128.69c2.9,2.16,6.24,2.77,14.01,2.77,7.78,0,11.11-.61,14.01-2.77" fill="none" stroke="#000" stroke-miterlimit="10" stroke-width="12"/>
  </g>
  <g>
    <path d="M186.01,48.69c2.9,2.16,6.24,2.77,14.01,2.77,7.78,0,11.11-.61,14.01-2.77" fill="none" stroke="#e8e5df" stroke-miterlimit="10" stroke-width="15"/>
    <path d="M186.01,48.69c2.9,2.16,6.24,2.77,14.01,2.77,7.78,0,11.11-.61,14.01-2.77" fill="none" stroke="#000" stroke-miterlimit="10" stroke-width="12"/>
  </g>
  <g>
    <path d="M186.01,128.69c2.9,2.16,6.24,2.77,14.01,2.77,7.78,0,11.11-.61,14.01-2.77" fill="none" stroke="#e8e5df" stroke-miterlimit="10" stroke-width="15"/>
    <path d="M186.01,128.69c2.9,2.16,6.24,2.77,14.01,2.77,7.78,0,11.11-.61,14.01-2.77" fill="none" stroke="#000" stroke-miterlimit="10" stroke-width="12"/>
  </g>
  <g>
    <path d="M136.01,208.69c-2.5-1.86-3.98-5.08-3.77-9.22.55-13.5,22.14-43.37,22.77-58.01.73-17.1-13.3-30-30-30-16.7,0-30.73,12.9-30,30,.63,14.64,22.22,44.51,22.77,58.01.21,4.14-1.27,7.36-3.77,9.22" fill="none" stroke="#e8e5df" stroke-miterlimit="10" stroke-width="15"/>
    <path d="M136.01,208.69c-2.5-1.86-3.98-5.08-3.77-9.22.55-13.5,22.14-43.37,22.77-58.01.73-17.1-13.3-30-30-30-16.7,0-30.73,12.9-30,30,.63,14.64,22.22,44.51,22.77,58.01.21,4.14-1.27,7.36-3.77,9.22" fill="none" stroke="#000" stroke-miterlimit="10" stroke-width="12"/>
  </g>
  <g>
    <path d="M136.01,128.69c-2.5-1.86-3.98-5.08-3.77-9.22.55-13.5,22.14-43.37,22.77-58.01.73-17.1-13.3-30-30-30-16.7,0-30.73,12.9-30,30,.63,14.64,22.22,44.51,22.77,58.01.21,4.14-1.27,7.36-3.77,9.22" fill="none" stroke="#e8e5df" stroke-miterlimit="10" stroke-width="15"/>
    <path d="M136.01,128.69c-2.5-1.86-3.98-5.08-3.77-9.22.55-13.5,22.14-43.37,22.77-58.01.73-17.1-13.3-30-30-30-16.7,0-30.73,12.9-30,30,.63,14.64,22.22,44.51,22.77,58.01.21,4.14-1.27,7.36-3.77,9.22" fill="none" stroke="#000" stroke-miterlimit="10" stroke-width="12"/>
  </g>
  <g>
    <path d="M95.01-18.54c.63,14.64,22.22,44.51,22.77,58.01.21,4.14-1.27,7.36-3.77,9.22" fill="none" stroke="#e8e5df" stroke-miterlimit="10" stroke-width="15"/>
    <path d="M95.01-18.54c.63,14.64,22.22,44.51,22.77,58.01.21,4.14-1.27,7.36-3.77,9.22" fill="none" stroke="#000" stroke-miterlimit="10" stroke-width="12"/>
  </g>
  <g>
    <path d="M136.01,48.69c-2.5-1.86-3.98-5.08-3.77-9.22.55-13.5,22.14-43.37,22.77-58.01" fill="none" stroke="#e8e5df" stroke-miterlimit="10" stroke-width="15"/>
    <path d="M136.01,48.69c-2.5-1.86-3.98-5.08-3.77-9.22.55-13.5,22.14-43.37,22.77-58.01" fill="none" stroke="#000" stroke-miterlimit="10" stroke-width="12"/>
  </g>
</svg>